<svg width="31" height="30" viewBox="0 0 31 30" fill="none" xmlns="http://www.w3.org/2000/svg">
<g clip-path="url(#clip0)">
<path d="M15.4276 0.00100708C7.15652 0.00100708 0.427612 6.72992 0.427612 15.0008C0.427612 23.2718 7.15652 30.0007 15.4276 30.0007C23.6987 30.0007 30.4276 23.2718 30.4276 15.0008C30.4276 6.72992 23.6987 0.00100708 15.4276 0.00100708ZM25.2025 7.07528C26.8865 9.14811 27.9232 11.7644 28.0094 14.6165C24.8901 13.9707 22.0655 14.0465 19.572 14.5354C19.1205 13.4795 18.6531 12.4736 18.1814 11.523C20.8969 10.3531 23.261 8.85894 25.2025 7.07528ZM23.5128 5.35793C21.5856 7.11703 19.3522 8.41949 17.0653 9.38109C15.3868 6.31166 13.7809 4.00024 12.8026 2.6867C13.6497 2.50623 14.5275 2.40941 15.4276 2.40941C18.5035 2.40941 21.3237 3.51952 23.5128 5.35793ZM10.3701 3.47328C11.1089 4.43054 12.8684 6.82738 14.7586 10.2375C10.0082 11.7852 5.39887 12.0459 3.18395 12.0701C4.10717 8.21349 6.80795 5.04227 10.3701 3.47328ZM2.84918 14.4846C2.87294 14.4846 2.8959 14.4848 2.92015 14.4848C4.4506 14.4848 7.25463 14.3819 10.5557 13.7799C12.4391 13.4365 14.225 12.9743 15.9008 12.4014C16.337 13.2708 16.7707 14.1879 17.1912 15.1492C14.8448 15.9046 12.866 16.9916 11.2987 18.0709C8.67028 19.8809 6.82898 21.889 5.82355 23.1306C3.96202 20.9353 2.83601 18.0979 2.83601 15.0008C2.83601 14.8278 2.84211 14.6561 2.84918 14.4846ZM7.55905 24.8205C8.42463 23.7307 10.1865 21.7469 12.735 20.0063C14.467 18.8233 16.2588 17.9444 18.1035 17.3675C19.1738 20.1417 20.0875 23.2069 20.6323 26.4616C19.0447 27.1854 17.2834 27.5923 15.4276 27.5923C12.4521 27.5923 9.71633 26.5527 7.55905 24.8205ZM22.8481 25.1648C22.2866 22.1756 21.4493 19.365 20.4812 16.7964C22.8623 16.3947 25.3232 16.4775 27.8508 17.0453C27.3057 20.3672 25.4572 23.2548 22.8481 25.1648Z" fill="#1C1C1C"/>
</g>
<defs>
<clipPath id="clip0">
<rect width="30" height="30" fill="white" transform="translate(0.427612)"/>
</clipPath>
</defs>
</svg>
