<svg width="30" height="30" viewBox="0 0 30 30" fill="none" xmlns="http://www.w3.org/2000/svg">
<g clip-path="url(#clip0)">
<path d="M28.3423 0.00125122H1.65574C0.741924 0.00125122 0 0.741693 0 1.657V28.3435C0 29.2588 0.741924 30.0003 1.65574 30.0003H16.023V18.3829H12.1138V13.8548H16.023V10.5156C16.023 6.64152 18.3885 4.53084 21.8453 4.53084C23.5025 4.53084 24.9236 4.65482 25.338 4.70866V8.75813L22.9404 8.75911C21.0609 8.75911 20.6983 9.65268 20.6983 10.9632V13.8533H25.1824L24.5961 18.3809H20.6978V29.9988H28.3418C29.2566 29.9988 29.999 29.2564 29.999 28.3435V1.65601C29.9985 0.741693 29.2571 0.00125122 28.3423 0.00125122Z" fill="white"/>
</g>
<defs>
<clipPath id="clip0">
<rect width="30" height="29.9995" fill="white" transform="translate(0 0.000244141)"/>
</clipPath>
</defs>
</svg>
