<svg width="31" height="30" viewBox="0 0 31 30" fill="none" xmlns="http://www.w3.org/2000/svg">
<g clip-path="url(#clip0)">
<path d="M29.2414 0H1.04211C0.614161 0 0.267334 0.346828 0.267334 0.774778V29.2252C0.267334 29.6532 0.614161 30 1.04211 30H10.4164V29.9932C10.8395 29.9883 11.1637 29.7515 11.1786 29.3507C11.217 28.3089 11.1899 27.2649 11.1899 26.2578C10.4349 26.293 9.71407 26.3884 9.0014 26.3473C7.42956 26.2568 6.22171 25.5861 5.59528 24.0469C5.22422 23.1351 4.66508 22.3552 3.79429 21.8348C3.63167 21.7375 3.4895 21.5943 3.36507 21.4488C3.20245 21.2591 3.23288 21.0642 3.48981 21.0122C3.74902 20.9594 4.03221 20.9226 4.28783 20.9704C5.29176 21.1589 5.986 21.7885 6.51741 22.626C7.56819 24.2828 9.18561 24.79 11.0053 24.0249C11.1068 23.9822 11.2357 23.8788 11.2549 23.7844C11.4016 23.051 11.6757 22.3823 12.228 21.796C11.6139 21.6822 11.0451 21.5985 10.4872 21.4692C8.88077 21.0975 7.43764 20.4287 6.38231 19.1006C5.52129 18.0171 5.12757 16.7489 4.94657 15.3991C4.66312 13.2849 4.91684 11.3058 6.36874 9.61633C6.4421 9.53098 6.48187 9.35611 6.44923 9.2498C6.08561 8.06165 6.14117 6.88348 6.50157 5.70858C6.69069 5.09156 6.74335 5.06082 7.37299 5.1468C7.41149 5.15198 7.44894 5.16165 7.48712 5.16814C8.74926 5.37697 9.83564 5.98813 10.9058 6.64429C11.0497 6.73254 11.2688 6.78746 11.4269 6.74901C13.9829 6.12877 16.5341 6.13136 19.0898 6.75129C19.2381 6.78715 19.4363 6.73608 19.5781 6.66177C20.1599 6.35761 20.7168 6.00402 21.3061 5.71566C21.9916 5.38051 22.7137 5.12837 23.491 5.14226C23.6271 5.14485 23.8376 5.27477 23.8831 5.39503C24.3508 6.63425 24.4494 7.89708 24.0767 9.18674C24.0369 9.32442 24.0961 9.52063 24.1701 9.65636C24.538 10.3313 25.0515 10.9541 25.2843 11.67C25.9938 13.852 25.7352 16.0128 24.7694 18.0636C23.8844 19.9435 22.2431 20.896 20.3003 21.3873C19.6441 21.5532 18.9718 21.654 18.264 21.793C19.1916 22.762 19.337 23.9446 19.3206 25.1832C19.3034 26.4609 19.308 27.7389 19.3073 29.0169C19.307 29.6359 19.5772 29.9779 20.0488 29.9979C20.0484 29.9998 30.0159 29.9998 30.0159 29.9998V0.774778C30.0158 0.346828 29.669 0 29.2414 0Z" fill="#1C1C1C"/>
</g>
<defs>
<clipPath id="clip0">
<rect width="30" height="30" fill="white" transform="translate(0.141602)"/>
</clipPath>
</defs>
</svg>
