<svg width="31" height="30" viewBox="0 0 31 30" fill="none" xmlns="http://www.w3.org/2000/svg">
<g clip-path="url(#clip0)">
<path d="M21.3386 0H10.0886C4.91175 0 0.713623 4.19813 0.713623 9.375V20.625C0.713623 25.8019 4.91175 30 10.0886 30H21.3386C26.5155 30 30.7136 25.8019 30.7136 20.625V9.375C30.7136 4.19813 26.5155 0 21.3386 0ZM27.9011 20.625C27.9011 24.2437 24.9574 27.1875 21.3386 27.1875H10.0886C6.46987 27.1875 3.52612 24.2437 3.52612 20.625V9.375C3.52612 5.75625 6.46987 2.8125 10.0886 2.8125H21.3386C24.9574 2.8125 27.9011 5.75625 27.9011 9.375V20.625Z" fill="#1C1C1C"/>
<path d="M15.7136 7.5C11.5717 7.5 8.21362 10.8581 8.21362 15C8.21362 19.1419 11.5717 22.5 15.7136 22.5C19.8555 22.5 23.2136 19.1419 23.2136 15C23.2136 10.8581 19.8555 7.5 15.7136 7.5ZM15.7136 19.6875C13.1299 19.6875 11.0261 17.5837 11.0261 15C11.0261 12.4144 13.1299 10.3125 15.7136 10.3125C18.2974 10.3125 20.4011 12.4144 20.4011 15C20.4011 17.5837 18.2974 19.6875 15.7136 19.6875Z" fill="#1C1C1C"/>
<path d="M23.7761 7.93688C24.328 7.93688 24.7755 7.48945 24.7755 6.93751C24.7755 6.38557 24.328 5.93814 23.7761 5.93814C23.2242 5.93814 22.7767 6.38557 22.7767 6.93751C22.7767 7.48945 23.2242 7.93688 23.7761 7.93688Z" fill="#1C1C1C"/>
</g>
<defs>
<clipPath id="clip0">
<rect width="30" height="30" fill="white" transform="translate(0.713623)"/>
</clipPath>
</defs>
</svg>
