<svg width="39" height="39" viewBox="0 0 39 39" fill="none" xmlns="http://www.w3.org/2000/svg">
<path fill-rule="evenodd" clip-rule="evenodd" d="M19.5 35.1C23.6374 35.1 27.6053 33.4564 30.5309 30.5309C33.4565 27.6053 35.1 23.6374 35.1 19.5C35.1 15.3626 33.4565 11.3947 30.5309 8.46913C27.6053 5.54356 23.6374 3.89999 19.5 3.89999C15.3626 3.89999 11.3947 5.54356 8.46916 8.46913C5.54359 11.3947 3.90002 15.3626 3.90002 19.5C3.90002 23.6374 5.54359 27.6053 8.46916 30.5309C11.3947 33.4564 15.3626 35.1 19.5 35.1ZM8.44742 15.6526C9.17144 13.5792 10.4633 11.7509 12.1758 10.3759C12.6984 11.1735 13.5993 11.7 14.625 11.7C15.4008 11.7 16.1448 12.0082 16.6933 12.5567C17.2419 13.1052 17.55 13.8492 17.55 14.625V15.6C17.55 16.6343 17.9609 17.6263 18.6923 18.3577C19.4237 19.0891 20.4157 19.5 21.45 19.5C22.4844 19.5 23.4763 19.0891 24.2077 18.3577C24.9391 17.6263 25.35 16.6343 25.35 15.6C25.3497 14.7272 25.6422 13.8796 26.1806 13.1927C26.719 12.5058 27.4723 12.0193 28.3199 11.8111C30.1808 13.9399 31.2044 16.6725 31.2 19.5C31.2 20.163 31.1454 20.8162 31.0382 21.45H29.25C28.2157 21.45 27.2237 21.8609 26.4923 22.5923C25.7609 23.3237 25.35 24.3156 25.35 25.35V29.6341C23.5722 30.6628 21.554 31.203 19.5 31.2V27.3C19.5 26.2656 19.0891 25.2737 18.3577 24.5423C17.6263 23.8109 16.6344 23.4 15.6 23.4C14.5657 23.4 13.5737 22.9891 12.8423 22.2577C12.1109 21.5263 11.7 20.5343 11.7 19.5C11.7004 18.5776 11.3738 17.685 10.7783 16.9806C10.1828 16.2763 9.35698 15.8058 8.44742 15.6526Z" fill="#1C1C1C"/>
</svg>
