<svg width="30" height="30" viewBox="0 0 30 30" fill="none" xmlns="http://www.w3.org/2000/svg">
<g clip-path="url(#clip0)">
<path d="M28.3423 0.0012207H1.65574C0.741924 0.0012207 0 0.741663 0 1.65697V28.3435C0 29.2588 0.741924 30.0002 1.65574 30.0002H16.023V18.3829H12.1138V13.8547H16.023V10.5156C16.023 6.64149 18.3885 4.53081 21.8453 4.53081C23.5025 4.53081 24.9236 4.65479 25.338 4.70863V8.75809L22.9404 8.75908C21.0609 8.75908 20.6983 9.65265 20.6983 10.9631V13.8533H25.1824L24.5961 18.3809H20.6978V29.9987H28.3418C29.2566 29.9987 29.999 29.2563 29.999 28.3435V1.65598C29.9985 0.741663 29.2571 0.0012207 28.3423 0.0012207Z" fill="white"/>
</g>
<defs>
<clipPath id="clip0">
<rect width="30" height="29.9995" fill="white" transform="translate(0 0.000244141)"/>
</clipPath>
</defs>
</svg>
