<svg width="50" height="50" viewBox="0 0 50 50" fill="none" xmlns="http://www.w3.org/2000/svg">
<path d="M25 45.8334C36.5059 45.8334 45.8333 36.506 45.8333 25.0001C45.8333 13.4941 36.5059 4.16675 25 4.16675C13.4941 4.16675 4.16667 13.4941 4.16667 25.0001C4.16667 36.506 13.4941 45.8334 25 45.8334Z" stroke="white" stroke-width="2" stroke-linecap="round" stroke-linejoin="round"/>
<path d="M18.9376 18.7502C19.4274 17.3579 20.3941 16.1838 21.6666 15.4359C22.9391 14.688 24.4353 14.4147 25.89 14.6642C27.3448 14.9137 28.6643 15.6701 29.6148 16.7992C30.5653 17.9284 31.0856 19.3576 31.0834 20.8336C31.0834 25.0002 24.8334 27.0836 24.8334 27.0836" stroke="white" stroke-width="2" stroke-linecap="round" stroke-linejoin="round"/>
<path d="M25 35.4167H25.0208" stroke="white" stroke-width="2" stroke-linecap="round" stroke-linejoin="round"/>
</svg>
