<svg width="50" height="50" viewBox="0 0 50 50" fill="none" xmlns="http://www.w3.org/2000/svg">
<path d="M12.5 4.16675L6.25 12.5001V41.6668C6.25 42.7718 6.68899 43.8316 7.47039 44.613C8.25179 45.3944 9.3116 45.8334 10.4167 45.8334H39.5833C40.6884 45.8334 41.7482 45.3944 42.5296 44.613C43.311 43.8316 43.75 42.7718 43.75 41.6668V12.5001L37.5 4.16675H12.5Z" stroke="white" stroke-width="2" stroke-linecap="round" stroke-linejoin="round"/>
<path d="M6.25 12.5H43.75" stroke="white" stroke-width="2" stroke-linecap="round" stroke-linejoin="round"/>
<path d="M33.3333 20.8333C33.3333 23.0434 32.4554 25.163 30.8925 26.7258C29.3297 28.2886 27.2101 29.1666 25 29.1666C22.7899 29.1666 20.6702 28.2886 19.1074 26.7258C17.5446 25.163 16.6667 23.0434 16.6667 20.8333" stroke="white" stroke-width="2" stroke-linecap="round" stroke-linejoin="round"/>
</svg>
