<svg id="Layer_1" data-name="Layer 1" xmlns="http://www.w3.org/2000/svg" viewBox="0 0 64 64"><defs><style>.cls-1{fill:none;stroke:#000;stroke-miterlimit:10;stroke-width:2px;}</style></defs><title>settings</title><circle class="cls-1" cx="32.5" cy="31.5" r="8"/><path class="cls-1" d="M57.5,37.5v-12l-6.61,1.1A20.3,20.3,0,0,0,49.18,22L55,19.85,49,9.46l-6.4,5.27a19.34,19.34,0,0,0-5.56-2.53L38.5,3.5h-12L27.91,12a19.05,19.05,0,0,0-6.82,3L14.62,9.6,8.62,20l6.09,2.28a20.59,20.59,0,0,0-1.65,4.53L6.5,25.71v12l6.66-1.11A20.62,20.62,0,0,0,15,41.25l-5.9,2.21,6,10.39,6.58-5.42a19.11,19.11,0,0,0,6,2.56L26.42,58.5h12l-1.29-7.72a19.24,19.24,0,0,0,5.81-2.73l6.16,5.07,6-10.39-5.74-2.15a20.08,20.08,0,0,0,1.53-4.18Z"/></svg>